<svg width="380" height="140" viewBox="0 0 380 140" fill="none" xmlns="http://www.w3.org/2000/svg">
<rect width="380" height="140" fill="url(#paint0_linear_2887_4847)"/>
<path d="M117.074 48.4247C119.665 48.4247 121.759 49.249 123.355 50.8976C124.951 52.5202 125.75 54.7969 125.75 57.7279V70.4856H120.254V58.4739C120.254 56.7466 119.822 55.4251 118.959 54.5092C118.095 53.567 116.917 53.0959 115.426 53.0959C113.908 53.0959 112.704 53.567 111.814 54.5092C110.951 55.4251 110.519 56.7466 110.519 58.4739V70.4856H105.023V48.7387H110.519V51.4473C111.252 50.5052 112.181 49.7725 113.306 49.249C114.458 48.6996 115.714 48.4247 117.074 48.4247ZM140.632 70.8389C138.539 70.8389 136.654 70.3808 134.98 69.4649C133.305 68.5228 131.983 67.2013 131.015 65.5002C130.073 63.7992 129.602 61.8366 129.602 59.6121C129.602 57.3877 130.086 55.4251 131.054 53.724C132.049 52.023 133.396 50.7146 135.097 49.7985C136.798 48.8566 138.696 48.3854 140.789 48.3854C142.883 48.3854 144.78 48.8566 146.481 49.7985C148.182 50.7146 149.517 52.023 150.485 53.724C151.479 55.4251 151.977 57.3877 151.977 59.6121C151.977 61.8366 151.466 63.7992 150.446 65.5002C149.451 67.2013 148.091 68.5228 146.363 69.4649C144.662 70.3808 142.752 70.8389 140.632 70.8389ZM140.632 66.0499C141.627 66.0499 142.556 65.8142 143.419 65.3433C144.309 64.8461 145.016 64.1134 145.539 63.145C146.062 62.1768 146.324 60.9992 146.324 59.6121C146.324 57.5448 145.774 55.9614 144.675 54.8623C143.602 53.7371 142.281 53.1744 140.711 53.1744C139.141 53.1744 137.819 53.7371 136.746 54.8623C135.699 55.9614 135.176 57.5448 135.176 59.6121C135.176 61.6794 135.686 63.2759 136.707 64.4011C137.753 65.5002 139.062 66.0499 140.632 66.0499ZM154.595 59.5336C154.595 57.3354 155.027 55.3857 155.89 53.6847C156.78 51.9838 157.984 50.6753 159.502 49.7593C161.019 48.8434 162.707 48.3854 164.565 48.3854C165.978 48.3854 167.326 48.6996 168.609 49.3275C169.891 49.9295 170.911 50.7406 171.67 51.7613V41.4375H177.244V70.4856H171.67V67.2667C170.99 68.3396 170.035 69.2032 168.805 69.8574C167.575 70.5118 166.149 70.8389 164.526 70.8389C162.694 70.8389 161.019 70.3677 159.502 69.4258C157.984 68.4836 156.78 67.162 155.89 65.4611C155.027 63.7338 154.595 61.7581 154.595 59.5336ZM171.71 59.6121C171.71 58.2775 171.448 57.1391 170.924 56.1971C170.401 55.2287 169.695 54.4961 168.805 53.9989C167.915 53.4754 166.96 53.2137 165.939 53.2137C164.918 53.2137 163.977 53.4623 163.113 53.9595C162.249 54.4567 161.543 55.1896 160.993 56.1578C160.47 57.0999 160.208 58.2251 160.208 59.5336C160.208 60.842 160.47 61.9936 160.993 62.988C161.543 63.9562 162.249 64.7022 163.113 65.2254C164.003 65.7488 164.945 66.0106 165.939 66.0106C166.96 66.0106 167.915 65.762 168.805 65.2648C169.695 64.7413 170.401 64.0086 170.924 63.0665C171.448 62.0983 171.71 60.9468 171.71 59.6121ZM202.828 59.1412C202.828 59.9261 202.775 60.6328 202.671 61.2607H186.773C186.904 62.831 187.453 64.0609 188.421 64.9508C189.39 65.8405 190.58 66.2854 191.993 66.2854C194.035 66.2854 195.487 65.4086 196.351 63.6553H202.278C201.65 65.7488 200.446 67.4761 198.667 68.837C196.887 70.1716 194.702 70.8389 192.111 70.8389C190.018 70.8389 188.134 70.3808 186.459 69.4649C184.81 68.5228 183.515 67.2013 182.573 65.5002C181.657 63.7992 181.199 61.8366 181.199 59.6121C181.199 57.3616 181.657 55.3857 182.573 53.6847C183.488 51.9838 184.771 50.6753 186.419 49.7593C188.068 48.8434 189.965 48.3854 192.111 48.3854C194.179 48.3854 196.024 48.8303 197.646 49.72C199.295 50.6099 200.564 51.8791 201.454 53.5277C202.37 55.1503 202.828 57.0214 202.828 59.1412ZM197.136 57.5709C197.11 56.1578 196.599 55.0324 195.605 54.195C194.61 53.3315 193.394 52.8997 191.954 52.8997C190.593 52.8997 189.442 53.3184 188.5 54.1558C187.584 54.967 187.021 56.1055 186.812 57.5709H197.136Z" fill="#000B31"/>
<path d="M232.813 48.6602C235.325 48.6602 237.367 49.4582 238.937 51.0547C240.533 52.6248 241.332 54.9147 241.332 57.9241V70.4855H238.622V58.2381C238.622 55.9091 238.059 54.1296 236.935 52.8997C235.809 51.6696 234.278 51.0547 232.342 51.0547C230.327 51.0547 228.716 51.722 227.514 53.0567C226.309 54.3913 225.708 56.3278 225.708 58.8663V70.4855H223V58.2381C223 55.9091 222.437 54.1296 221.311 52.8997C220.187 51.6696 218.641 51.0547 216.68 51.0547C214.664 51.0547 213.056 51.722 211.851 53.0567C210.647 54.3913 210.045 56.3278 210.045 58.8663V70.4855H207.297V49.0526H210.045V52.7427C210.725 51.4079 211.694 50.4004 212.951 49.7199C214.206 49.0135 215.606 48.6602 217.15 48.6602C219.008 48.6602 220.631 49.1051 222.017 49.9948C223.431 50.8846 224.452 52.193 225.08 53.9203C225.655 52.2192 226.636 50.9238 228.024 50.0341C229.437 49.1182 231.033 48.6602 232.813 48.6602ZM246.178 59.7299C246.178 57.5317 246.61 55.6082 247.473 53.9595C248.363 52.2846 249.58 51.0023 251.124 50.1126C252.694 49.1967 254.459 48.7387 256.423 48.7387C258.465 48.7387 260.216 49.2096 261.683 50.1518C263.174 51.0939 264.248 52.2977 264.902 53.7631V49.0526H267.65V70.4855H264.902V65.7357C264.222 67.2012 263.136 68.4182 261.643 69.3864C260.178 70.3285 258.424 70.7995 256.384 70.7995C254.447 70.7995 252.694 70.3416 251.124 69.4257C249.58 68.5096 248.363 67.2143 247.473 65.5395C246.61 63.8647 246.178 61.9282 246.178 59.7299ZM264.902 59.7691C264.902 58.042 264.549 56.5241 263.842 55.2156C263.136 53.9072 262.167 52.8997 260.937 52.193C259.734 51.4864 258.398 51.1332 256.933 51.1332C255.416 51.1332 254.054 51.4734 252.851 52.1539C251.646 52.8341 250.692 53.8287 249.986 55.1371C249.304 56.4194 248.965 57.9504 248.965 59.7299C248.965 61.4832 249.304 63.0271 249.986 64.3619C250.692 65.6703 251.646 66.6778 252.851 67.3844C254.054 68.0649 255.416 68.4051 256.933 68.4051C258.398 68.4051 259.734 68.0518 260.937 67.3451C262.167 66.6386 263.136 65.6311 263.842 64.3226C264.549 63.0142 264.902 61.4963 264.902 59.7691ZM281.538 67.8163L288.76 49.0526H291.666L283.068 70.4855H279.968L271.37 49.0526H274.314L281.538 67.8163ZM314.781 58.6699C314.781 59.6121 314.755 60.3317 314.702 60.829H296.921C297 62.4514 297.391 63.8385 298.098 64.9899C298.804 66.1414 299.734 67.018 300.886 67.6199C302.036 68.1956 303.293 68.4836 304.653 68.4836C306.433 68.4836 307.924 68.0518 309.129 67.1881C310.358 66.3245 311.169 65.16 311.563 63.6946H314.466C313.944 65.7881 312.818 67.5021 311.091 68.8369C309.389 70.1453 307.244 70.7995 304.653 70.7995C302.638 70.7995 300.834 70.3547 299.236 69.4649C297.639 68.549 296.384 67.2666 295.468 65.618C294.578 63.9432 294.134 61.9935 294.134 59.7691C294.134 57.5448 294.578 55.5951 295.468 53.9203C296.358 52.2453 297.601 50.9631 299.197 50.0733C300.793 49.1836 302.611 48.7387 304.653 48.7387C306.695 48.7387 308.475 49.1836 309.993 50.0733C311.536 50.9631 312.713 52.1668 313.526 53.6846C314.363 55.1764 314.781 56.8381 314.781 58.6699ZM311.994 58.5914C312.021 56.9951 311.694 55.6343 311.014 54.5091C310.358 53.3838 309.456 52.5332 308.304 51.9575C307.153 51.3818 305.896 51.0939 304.536 51.0939C302.494 51.0939 300.755 51.7481 299.314 53.0567C297.875 54.365 297.078 56.21 296.921 58.5914H311.994ZM329.858 48.6602C332.423 48.6602 334.515 49.4582 336.138 51.0547C337.76 52.6248 338.571 54.9147 338.571 57.9241V70.4855H335.863V58.2381C335.863 55.9091 335.274 54.1296 334.098 52.8997C332.945 51.6696 331.361 51.0547 329.347 51.0547C327.279 51.0547 325.631 51.7089 324.402 53.0173C323.171 54.3259 322.556 56.2493 322.556 58.7878V70.4855H319.809V49.0526H322.556V52.7033C323.237 51.3949 324.218 50.4004 325.5 49.7199C326.783 49.0135 328.236 48.6602 329.858 48.6602Z" fill="#000B31"/>
<path d="M105.042 95.9609V84.3246H108.974C109.887 84.3246 110.633 84.4893 111.212 84.8189C111.796 85.1446 112.228 85.5859 112.508 86.1428C112.788 86.6996 112.928 87.3208 112.928 88.0064C112.928 88.692 112.788 89.3151 112.508 89.8757C112.231 90.4363 111.803 90.8833 111.224 91.2166C110.644 91.5462 109.902 91.7109 108.996 91.7109H106.178V90.4609H108.951C109.576 90.4609 110.078 90.353 110.457 90.1371C110.835 89.9212 111.11 89.6295 111.281 89.2621C111.455 88.8909 111.542 88.4723 111.542 88.0064C111.542 87.5405 111.455 87.1238 111.281 86.7564C111.11 86.389 110.834 86.1011 110.451 85.8928C110.068 85.6806 109.561 85.5746 108.928 85.5746H106.451V95.9609H105.042ZM115.016 95.9609V87.2337H116.312V88.5518H116.403C116.562 88.12 116.85 87.7696 117.266 87.5007C117.683 87.2318 118.153 87.0973 118.675 87.0973C118.774 87.0973 118.897 87.0992 119.045 87.103C119.192 87.1068 119.304 87.1125 119.38 87.12V88.4837C119.335 88.4723 119.23 88.4553 119.067 88.4325C118.908 88.406 118.74 88.3928 118.562 88.3928C118.138 88.3928 117.759 88.4818 117.425 88.6598C117.096 88.834 116.835 89.0765 116.641 89.3871C116.452 89.6939 116.357 90.0443 116.357 90.4382V95.9609H115.016ZM124.249 96.1428C123.461 96.1428 122.77 95.9553 122.175 95.5803C121.585 95.2053 121.122 94.6806 120.789 94.0064C120.46 93.3321 120.295 92.5443 120.295 91.6428C120.295 90.7337 120.46 89.9401 120.789 89.2621C121.122 88.584 121.585 88.0575 122.175 87.6825C122.77 87.3075 123.461 87.12 124.249 87.12C125.037 87.12 125.727 87.3075 126.317 87.6825C126.912 88.0575 127.374 88.584 127.704 89.2621C128.037 89.9401 128.204 90.7337 128.204 91.6428C128.204 92.5443 128.037 93.3321 127.704 94.0064C127.374 94.6806 126.912 95.2053 126.317 95.5803C125.727 95.9553 125.037 96.1428 124.249 96.1428ZM124.249 94.9382C124.848 94.9382 125.34 94.7848 125.727 94.478C126.113 94.1712 126.399 93.7678 126.585 93.2678C126.77 92.7678 126.863 92.2261 126.863 91.6428C126.863 91.0594 126.77 90.5159 126.585 90.0121C126.399 89.5083 126.113 89.1011 125.727 88.7905C125.34 88.4799 124.848 88.3246 124.249 88.3246C123.651 88.3246 123.158 88.4799 122.772 88.7905C122.386 89.1011 122.1 89.5083 121.914 90.0121C121.728 90.5159 121.636 91.0594 121.636 91.6428C121.636 92.2261 121.728 92.7678 121.914 93.2678C122.1 93.7678 122.386 94.1712 122.772 94.478C123.158 94.7848 123.651 94.9382 124.249 94.9382ZM130.891 87.2337L132.982 90.8018L135.073 87.2337H136.619L133.8 91.5973L136.619 95.9609H135.073L132.982 92.5746L130.891 95.9609H129.346L132.119 91.5973L129.346 87.2337H130.891ZM139.396 99.2337C139.168 99.2337 138.966 99.2147 138.788 99.1768C138.61 99.1428 138.487 99.1087 138.418 99.0746L138.759 97.8928C139.085 97.9761 139.373 98.0064 139.623 97.9837C139.873 97.9609 140.094 97.8492 140.288 97.6484C140.485 97.4515 140.665 97.1314 140.827 96.6882L141.077 96.0064L137.85 87.2337H139.305L141.714 94.1882H141.805L144.214 87.2337H145.668L141.964 97.2337C141.797 97.6844 141.591 98.0575 141.344 98.353C141.098 98.6522 140.812 98.8738 140.487 99.0178C140.165 99.1617 139.801 99.2337 139.396 99.2337ZM153.915 95.9609L151.256 87.2337H152.665L154.552 93.9155H154.643L156.506 87.2337H157.938L159.779 93.8928H159.87L161.756 87.2337H163.165L160.506 95.9609H159.188L157.279 89.2564H157.143L155.234 95.9609H153.915ZM164.938 95.9609V87.2337H166.279V95.9609H164.938ZM165.62 85.7791C165.359 85.7791 165.133 85.6901 164.944 85.5121C164.758 85.334 164.665 85.12 164.665 84.87C164.665 84.62 164.758 84.406 164.944 84.228C165.133 84.05 165.359 83.9609 165.62 83.9609C165.881 83.9609 166.105 84.05 166.29 84.228C166.48 84.406 166.575 84.62 166.575 84.87C166.575 85.12 166.48 85.334 166.29 85.5121C166.105 85.6901 165.881 85.7791 165.62 85.7791ZM172.531 87.2337V88.37H168.008V87.2337H172.531ZM169.326 85.1428H170.667V93.4609C170.667 93.8397 170.722 94.1238 170.832 94.3132C170.945 94.4988 171.089 94.6238 171.263 94.6882C171.442 94.7488 171.629 94.7791 171.826 94.7791C171.974 94.7791 172.095 94.7715 172.19 94.7564C172.284 94.7375 172.36 94.7223 172.417 94.7109L172.69 95.9155C172.599 95.9496 172.472 95.9837 172.309 96.0178C172.146 96.0556 171.94 96.0746 171.69 96.0746C171.311 96.0746 170.94 95.9931 170.576 95.8303C170.216 95.6674 169.917 95.4193 169.678 95.0859C169.443 94.7526 169.326 94.3321 169.326 93.8246V85.1428ZM176.076 90.7109V95.9609H174.735V84.3246H176.076V88.5973H176.19C176.394 88.1465 176.701 87.7886 177.11 87.5234C177.523 87.2545 178.072 87.12 178.758 87.12C179.353 87.12 179.873 87.2393 180.32 87.478C180.767 87.7128 181.114 88.0746 181.36 88.5632C181.61 89.0481 181.735 89.6655 181.735 90.4155V95.9609H180.394V90.5064C180.394 89.8132 180.214 89.2772 179.854 88.8984C179.498 88.5159 179.004 88.3246 178.371 88.3246C177.932 88.3246 177.538 88.4174 177.19 88.603C176.845 88.7886 176.572 89.0594 176.371 89.4155C176.174 89.7715 176.076 90.2034 176.076 90.7109ZM192.484 87.2337V88.37H187.961V87.2337H192.484ZM189.279 85.1428H190.62V93.4609C190.62 93.8397 190.675 94.1238 190.785 94.3132C190.898 94.4988 191.042 94.6238 191.217 94.6882C191.395 94.7488 191.582 94.7791 191.779 94.7791C191.927 94.7791 192.048 94.7715 192.143 94.7564C192.237 94.7375 192.313 94.7223 192.37 94.7109L192.643 95.9155C192.552 95.9496 192.425 95.9837 192.262 96.0178C192.099 96.0556 191.893 96.0746 191.643 96.0746C191.264 96.0746 190.893 95.9931 190.529 95.8303C190.169 95.6674 189.87 95.4193 189.631 95.0859C189.397 94.7526 189.279 94.3321 189.279 93.8246V85.1428ZM196.029 90.7109V95.9609H194.688V84.3246H196.029V88.5973H196.143C196.347 88.1465 196.654 87.7886 197.063 87.5234C197.476 87.2545 198.025 87.12 198.711 87.12C199.306 87.12 199.826 87.2393 200.273 87.478C200.72 87.7128 201.067 88.0746 201.313 88.5632C201.563 89.0481 201.688 89.6655 201.688 90.4155V95.9609H200.347V90.5064C200.347 89.8132 200.167 89.2772 199.808 88.8984C199.451 88.5159 198.957 88.3246 198.325 88.3246C197.885 88.3246 197.491 88.4174 197.143 88.603C196.798 88.7886 196.525 89.0594 196.325 89.4155C196.128 89.7715 196.029 90.2034 196.029 90.7109ZM207.8 96.1428C206.96 96.1428 206.234 95.9571 205.624 95.5859C205.018 95.2109 204.55 94.6882 204.221 94.0178C203.895 93.3435 203.732 92.5594 203.732 91.6655C203.732 90.7715 203.895 89.9837 204.221 89.3018C204.55 88.6162 205.009 88.0821 205.596 87.6996C206.187 87.3132 206.876 87.12 207.664 87.12C208.119 87.12 208.567 87.1958 209.011 87.3473C209.454 87.4988 209.857 87.745 210.221 88.0859C210.585 88.4231 210.874 88.87 211.09 89.4268C211.306 89.9837 211.414 90.6693 211.414 91.4837V92.0518H204.687V90.8928H210.05C210.05 90.4003 209.952 89.9609 209.755 89.5746C209.562 89.1882 209.285 88.8833 208.925 88.6598C208.569 88.4363 208.149 88.3246 207.664 88.3246C207.13 88.3246 206.668 88.4571 206.278 88.7223C205.891 88.9837 205.594 89.3246 205.386 89.745C205.177 90.1655 205.073 90.6162 205.073 91.0973V91.87C205.073 92.5291 205.187 93.0878 205.414 93.5462C205.645 94.0007 205.965 94.3473 206.374 94.5859C206.783 94.8208 207.259 94.9382 207.8 94.9382C208.153 94.9382 208.471 94.889 208.755 94.7905C209.043 94.6882 209.291 94.5367 209.499 94.3359C209.708 94.1314 209.869 93.8776 209.982 93.5746L211.278 93.9382C211.141 94.3776 210.912 94.764 210.59 95.0973C210.268 95.4268 209.871 95.6844 209.397 95.87C208.924 96.0518 208.391 96.1428 207.8 96.1428ZM220.113 90.9155V95.9609H217.692V84.3246H220.045V88.7734H220.147C220.344 88.2583 220.662 87.8549 221.102 87.5632C221.541 87.2678 222.092 87.12 222.755 87.12C223.361 87.12 223.889 87.2526 224.34 87.5178C224.795 87.7791 225.147 88.156 225.397 88.6484C225.651 89.1371 225.776 89.7223 225.772 90.4041V95.9609H223.352V90.8359C223.355 90.2981 223.219 89.8795 222.942 89.5803C222.67 89.281 222.287 89.1314 221.795 89.1314C221.465 89.1314 221.174 89.2015 220.92 89.3416C220.67 89.4818 220.473 89.6863 220.329 89.9553C220.189 90.2204 220.117 90.5405 220.113 90.9155ZM227.677 95.9609V87.2337H230.097V95.9609H227.677ZM228.893 86.1087C228.533 86.1087 228.224 85.9893 227.967 85.7507C227.713 85.5083 227.586 85.2185 227.586 84.8814C227.586 84.5481 227.713 84.2621 227.967 84.0234C228.224 83.781 228.533 83.6598 228.893 83.6598C229.253 83.6598 229.559 83.781 229.813 84.0234C230.071 84.2621 230.2 84.5481 230.2 84.8814C230.2 85.2185 230.071 85.5083 229.813 85.7507C229.559 85.9893 229.253 86.1087 228.893 86.1087ZM235.968 99.4155C235.184 99.4155 234.512 99.3075 233.951 99.0916C233.394 98.8795 232.951 98.5897 232.621 98.2223C232.292 97.8549 232.078 97.442 231.979 96.9837L234.218 96.6825C234.286 96.8568 234.394 97.0196 234.542 97.1712C234.69 97.3227 234.885 97.4439 235.127 97.5348C235.373 97.6295 235.673 97.6768 236.025 97.6768C236.551 97.6768 236.985 97.5481 237.326 97.2905C237.671 97.0367 237.843 96.6106 237.843 96.0121V94.4155H237.741C237.635 94.6579 237.476 94.8871 237.263 95.103C237.051 95.3189 236.779 95.495 236.445 95.6314C236.112 95.7678 235.714 95.8359 235.252 95.8359C234.597 95.8359 234 95.6844 233.462 95.3814C232.928 95.0746 232.502 94.6068 232.184 93.978C231.87 93.3454 231.712 92.5462 231.712 91.5803C231.712 90.5916 231.873 89.7659 232.195 89.103C232.517 88.4401 232.945 87.9439 233.479 87.6143C234.017 87.2848 234.606 87.12 235.246 87.12C235.735 87.12 236.144 87.2034 236.474 87.37C236.803 87.5329 237.068 87.7375 237.269 87.9837C237.474 88.2261 237.631 88.4647 237.741 88.6996H237.832V87.2337H240.235V96.0462C240.235 96.7886 240.053 97.4098 239.69 97.9098C239.326 98.4098 238.822 98.7848 238.178 99.0348C237.538 99.2886 236.801 99.4155 235.968 99.4155ZM236.019 94.0178C236.409 94.0178 236.739 93.9212 237.008 93.728C237.281 93.531 237.489 93.2507 237.633 92.8871C237.781 92.5196 237.854 92.0803 237.854 91.5689C237.854 91.0575 237.782 90.6143 237.638 90.2393C237.495 89.8606 237.286 89.567 237.013 89.3587C236.741 89.1503 236.409 89.0462 236.019 89.0462C235.621 89.0462 235.286 89.1541 235.013 89.37C234.741 89.5821 234.534 89.8776 234.394 90.2564C234.254 90.6352 234.184 91.0727 234.184 91.5689C234.184 92.0727 234.254 92.5083 234.394 92.8757C234.538 93.2393 234.745 93.5215 235.013 93.7223C235.286 93.9193 235.621 94.0178 236.019 94.0178ZM244.582 90.9155V95.9609H242.161V84.3246H244.513V88.7734H244.616C244.813 88.2583 245.131 87.8549 245.57 87.5632C246.01 87.2678 246.561 87.12 247.224 87.12C247.83 87.12 248.358 87.2526 248.809 87.5178C249.263 87.7791 249.616 88.156 249.866 88.6484C250.12 89.1371 250.245 89.7223 250.241 90.4041V95.9609H247.82V90.8359C247.824 90.2981 247.688 89.8795 247.411 89.5803C247.138 89.281 246.756 89.1314 246.263 89.1314C245.934 89.1314 245.642 89.2015 245.388 89.3416C245.138 89.4818 244.942 89.6863 244.798 89.9553C244.657 90.2204 244.585 90.5405 244.582 90.9155ZM256.123 96.1314C255.225 96.1314 254.452 95.9496 253.805 95.5859C253.161 95.2185 252.665 94.6996 252.316 94.0291C251.968 93.3549 251.793 92.5575 251.793 91.6371C251.793 90.7393 251.968 89.9515 252.316 89.2734C252.665 88.5954 253.155 88.067 253.788 87.6882C254.424 87.3094 255.17 87.12 256.026 87.12C256.602 87.12 257.138 87.2128 257.634 87.3984C258.134 87.5803 258.57 87.8549 258.941 88.2223C259.316 88.5897 259.608 89.0518 259.816 89.6087C260.024 90.1617 260.129 90.8094 260.129 91.5518V92.2166H252.759V90.7166H257.85C257.85 90.3681 257.774 90.0594 257.623 89.7905C257.471 89.5215 257.261 89.3113 256.992 89.1598C256.727 89.0045 256.418 88.9268 256.066 88.9268C255.699 88.9268 255.373 89.0121 255.089 89.1825C254.808 89.3492 254.589 89.5746 254.43 89.8587C254.271 90.139 254.189 90.4515 254.185 90.7962V92.2223C254.185 92.6541 254.265 93.0272 254.424 93.3416C254.587 93.656 254.816 93.8984 255.112 94.0689C255.407 94.2393 255.757 94.3246 256.163 94.3246C256.432 94.3246 256.678 94.2867 256.901 94.2109C257.125 94.1352 257.316 94.0215 257.475 93.87C257.634 93.7185 257.755 93.5329 257.839 93.3132L260.077 93.4609C259.964 93.9988 259.731 94.4685 259.379 94.87C259.03 95.2678 258.579 95.5784 258.026 95.8018C257.477 96.0215 256.843 96.1314 256.123 96.1314ZM268.969 89.7223L266.754 89.8587C266.716 89.6693 266.634 89.4988 266.509 89.3473C266.384 89.192 266.219 89.0689 266.015 88.978C265.814 88.8833 265.574 88.8359 265.293 88.8359C264.918 88.8359 264.602 88.9155 264.344 89.0746C264.087 89.2299 263.958 89.4382 263.958 89.6996C263.958 89.9079 264.041 90.084 264.208 90.228C264.375 90.3719 264.661 90.4875 265.066 90.5746L266.646 90.8928C267.494 91.067 268.127 91.3473 268.543 91.7337C268.96 92.12 269.168 92.6276 269.168 93.2564C269.168 93.8284 269 94.3303 268.663 94.7621C268.329 95.1939 267.871 95.531 267.288 95.7734C266.708 96.0121 266.04 96.1314 265.282 96.1314C264.127 96.1314 263.206 95.8909 262.521 95.4098C261.839 94.925 261.439 94.2659 261.322 93.4325L263.702 93.3075C263.774 93.6598 263.949 93.9287 264.225 94.1143C264.502 94.2962 264.856 94.3871 265.288 94.3871C265.712 94.3871 266.053 94.3056 266.31 94.1428C266.572 93.9761 266.704 93.7621 266.708 93.5007C266.704 93.281 266.612 93.1011 266.43 92.9609C266.248 92.817 265.968 92.7071 265.589 92.6314L264.077 92.3303C263.225 92.1598 262.591 91.8643 262.174 91.4439C261.761 91.0234 261.555 90.4875 261.555 89.8359C261.555 89.2753 261.706 88.7924 262.009 88.3871C262.316 87.9818 262.746 87.6693 263.299 87.4496C263.856 87.2299 264.507 87.12 265.254 87.12C266.356 87.12 267.223 87.353 267.856 87.8189C268.492 88.2848 268.863 88.9193 268.969 89.7223ZM275.335 87.2337V89.0518H270.079V87.2337H275.335ZM271.272 85.1428H273.692V93.2791C273.692 93.5026 273.727 93.6768 273.795 93.8018C273.863 93.9231 273.958 94.0083 274.079 94.0575C274.204 94.1068 274.348 94.1314 274.511 94.1314C274.624 94.1314 274.738 94.1219 274.852 94.103C274.965 94.0803 275.052 94.0632 275.113 94.0518L275.494 95.853C275.372 95.8909 275.202 95.9344 274.982 95.9837C274.763 96.0367 274.496 96.0689 274.181 96.0803C273.598 96.103 273.086 96.0253 272.647 95.8473C272.211 95.6693 271.872 95.3928 271.63 95.0178C271.388 94.6428 271.268 94.1693 271.272 93.5973V85.1428ZM286.381 99.2337V94.5632H286.308C286.194 94.8056 286.033 95.0462 285.825 95.2848C285.62 95.5196 285.353 95.7147 285.023 95.87C284.698 96.0253 284.3 96.103 283.83 96.103C283.167 96.103 282.567 95.9325 282.029 95.5916C281.495 95.2469 281.071 94.7412 280.756 94.0746C280.446 93.4041 280.29 92.5821 280.29 91.6087C280.29 90.6087 280.451 89.7772 280.773 89.1143C281.095 88.4477 281.523 87.9496 282.058 87.62C282.595 87.2867 283.184 87.12 283.825 87.12C284.313 87.12 284.72 87.2034 285.046 87.37C285.376 87.5329 285.641 87.7375 285.842 87.9837C286.046 88.2261 286.201 88.4647 286.308 88.6996H286.41V87.2337H288.796V99.2337H286.381ZM284.597 94.1768C284.987 94.1768 285.317 94.0708 285.586 93.8587C285.859 93.6428 286.067 93.3416 286.211 92.9553C286.359 92.5689 286.433 92.1162 286.433 91.5973C286.433 91.0784 286.361 90.6276 286.217 90.245C286.073 89.8625 285.864 89.567 285.592 89.3587C285.319 89.1503 284.987 89.0462 284.597 89.0462C284.2 89.0462 283.864 89.1541 283.592 89.37C283.319 89.5859 283.112 89.8852 282.972 90.2678C282.832 90.6503 282.762 91.0935 282.762 91.5973C282.762 92.1049 282.832 92.5537 282.972 92.9439C283.116 93.3303 283.323 93.6333 283.592 93.853C283.864 94.0689 284.2 94.1768 284.597 94.1768ZM296.336 92.245V87.2337H298.756V95.9609H296.433V94.3757H296.342C296.145 94.8871 295.817 95.2981 295.359 95.6087C294.904 95.9193 294.349 96.0746 293.694 96.0746C293.111 96.0746 292.597 95.942 292.154 95.6768C291.711 95.4117 291.364 95.0348 291.114 94.5462C290.868 94.0575 290.743 93.4723 290.739 92.7905V87.2337H293.16V92.3587C293.164 92.8738 293.302 93.281 293.575 93.5803C293.847 93.8795 294.213 94.0291 294.671 94.0291C294.963 94.0291 295.236 93.9628 295.489 93.8303C295.743 93.6939 295.948 93.4931 296.103 93.228C296.262 92.9628 296.34 92.6352 296.336 92.245ZM303.181 96.1257C302.624 96.1257 302.128 96.0291 301.692 95.8359C301.257 95.639 300.912 95.3492 300.658 94.9666C300.408 94.5803 300.283 94.0992 300.283 93.5234C300.283 93.0386 300.372 92.6314 300.55 92.3018C300.728 91.9723 300.971 91.7071 301.278 91.5064C301.585 91.3056 301.933 91.1541 302.323 91.0518C302.717 90.9496 303.13 90.8776 303.562 90.8359C304.069 90.7829 304.478 90.7337 304.789 90.6882C305.1 90.639 305.325 90.567 305.465 90.4723C305.605 90.3776 305.675 90.2375 305.675 90.0518V90.0178C305.675 89.6579 305.562 89.3795 305.335 89.1825C305.111 88.9856 304.793 88.8871 304.38 88.8871C303.944 88.8871 303.598 88.9837 303.34 89.1768C303.083 89.3662 302.912 89.6049 302.829 89.8928L300.59 89.7109C300.704 89.1806 300.927 88.7223 301.261 88.3359C301.594 87.9458 302.024 87.6465 302.55 87.4382C303.081 87.2261 303.694 87.12 304.391 87.12C304.876 87.12 305.34 87.1768 305.783 87.2905C306.23 87.4041 306.626 87.5803 306.971 87.8189C307.319 88.0575 307.594 88.3643 307.795 88.7393C307.996 89.1106 308.096 89.5556 308.096 90.0746V95.9609H305.8V94.7507H305.732C305.592 95.0234 305.405 95.264 305.17 95.4723C304.935 95.6768 304.653 95.8378 304.323 95.9553C303.994 96.0689 303.613 96.1257 303.181 96.1257ZM303.874 94.4553C304.23 94.4553 304.545 94.3852 304.817 94.245C305.09 94.1011 305.304 93.9079 305.46 93.6655C305.615 93.4231 305.692 93.1484 305.692 92.8416V91.9155C305.617 91.9647 305.513 92.0102 305.38 92.0518C305.251 92.0897 305.105 92.1257 304.942 92.1598C304.78 92.1901 304.617 92.2185 304.454 92.245C304.291 92.2678 304.143 92.2886 304.011 92.3075C303.727 92.3492 303.478 92.4155 303.266 92.5064C303.054 92.5973 302.889 92.7204 302.772 92.8757C302.655 93.0272 302.596 93.2166 302.596 93.4439C302.596 93.7734 302.715 94.0253 302.954 94.1996C303.196 94.37 303.503 94.4553 303.874 94.4553ZM312.394 84.3246V95.9609H309.974V84.3246H312.394ZM314.333 95.9609V87.2337H316.754V95.9609H314.333ZM315.549 86.1087C315.189 86.1087 314.88 85.9893 314.623 85.7507C314.369 85.5083 314.242 85.2185 314.242 84.8814C314.242 84.5481 314.369 84.2621 314.623 84.0234C314.88 83.781 315.189 83.6598 315.549 83.6598C315.909 83.6598 316.216 83.781 316.469 84.0234C316.727 84.2621 316.856 84.5481 316.856 84.8814C316.856 85.2185 316.727 85.5083 316.469 85.7507C316.216 85.9893 315.909 86.1087 315.549 86.1087ZM323.335 87.2337V89.0518H318.079V87.2337H323.335ZM319.272 85.1428H321.692V93.2791C321.692 93.5026 321.727 93.6768 321.795 93.8018C321.863 93.9231 321.958 94.0083 322.079 94.0575C322.204 94.1068 322.348 94.1314 322.511 94.1314C322.624 94.1314 322.738 94.1219 322.852 94.103C322.965 94.0803 323.052 94.0632 323.113 94.0518L323.494 95.853C323.372 95.8909 323.202 95.9344 322.982 95.9837C322.763 96.0367 322.496 96.0689 322.181 96.0803C321.598 96.103 321.086 96.0253 320.647 95.8473C320.211 95.6693 319.872 95.3928 319.63 95.0178C319.388 94.6428 319.268 94.1693 319.272 93.5973V85.1428ZM326.406 99.2337C326.099 99.2337 325.811 99.209 325.542 99.1598C325.277 99.1143 325.057 99.0556 324.883 98.9837L325.428 97.1768C325.712 97.264 325.968 97.3113 326.195 97.3189C326.426 97.3265 326.625 97.2734 326.792 97.1598C326.962 97.0462 327.101 96.853 327.207 96.5803L327.349 96.2109L324.218 87.2337H326.763L328.57 93.6428H328.661L330.485 87.2337H333.048L329.656 96.9041C329.493 97.3738 329.271 97.7829 328.991 98.1314C328.714 98.4837 328.364 98.7545 327.94 98.9439C327.515 99.1371 327.004 99.2337 326.406 99.2337ZM340.495 84.3246V95.9609H338.035V84.3246H340.495ZM342.519 95.9609V84.3246H347.11C347.993 84.3246 348.745 84.4931 349.366 84.8303C349.987 85.1636 350.46 85.6276 350.786 86.2223C351.116 86.8132 351.281 87.495 351.281 88.2678C351.281 89.0405 351.114 89.7223 350.781 90.3132C350.447 90.9041 349.964 91.3643 349.332 91.6939C348.703 92.0234 347.942 92.1882 347.048 92.1882H344.121V90.2166H346.65C347.123 90.2166 347.513 90.1352 347.82 89.9723C348.131 89.8056 348.362 89.5765 348.513 89.2848C348.669 88.9893 348.746 88.6503 348.746 88.2678C348.746 87.8814 348.669 87.5443 348.513 87.2564C348.362 86.9647 348.131 86.7393 347.82 86.5803C347.51 86.4174 347.116 86.3359 346.638 86.3359H344.979V95.9609H342.519Z" fill="#000B31"/>
<path fill-rule="evenodd" clip-rule="evenodd" d="M47.9263 75.218V99.0582L28 87.3159V53.8684L56.8219 37.1445L59.3127 42.1261L48.2821 48.531L66.785 65.9665V42.1261L86.7113 53.8684V87.3159L58.2452 103.684L55.3986 99.0582L66.0734 92.6534L47.9263 75.218ZM33.6932 84.1136V57.0709L43.3005 51.3775L75.3248 81.6228V74.1505L72.1223 70.948V51.7334L81.018 57.0709V84.1136L71.0549 89.8067L39.3864 59.5615V67.3898L42.5889 70.2363V89.4509L33.6932 84.1136Z" fill="url(#paint1_linear_2887_4847)"/>
<path fill-rule="evenodd" clip-rule="evenodd" d="M47.9263 75.218V99.0582L28 87.3159V53.8684L56.8219 37.1445L59.3127 42.1261L48.2821 48.531L66.785 65.9665V42.1261L86.7113 53.8684V87.3159L58.2452 103.684L55.3986 99.0582L66.0734 92.6534L47.9263 75.218ZM33.6932 84.1136V57.0709L43.3005 51.3775L75.3248 81.6228V74.1505L72.1223 70.948V51.7334L81.018 57.0709V84.1136L71.0549 89.8067L39.3864 59.5615V67.3898L42.5889 70.2363V89.4509L33.6932 84.1136Z" fill="url(#paint2_linear_2887_4847)"/>
<path d="M62.5178 39.9816C62.5178 42.7328 60.2875 44.9631 57.5363 44.9631C54.7852 44.9631 52.5547 42.7328 52.5547 39.9816C52.5547 37.2303 54.7852 35 57.5363 35C60.2875 35 62.5178 37.2303 62.5178 39.9816Z" fill="url(#paint3_linear_2887_4847)"/>
<path d="M62.5178 39.9816C62.5178 42.7328 60.2875 44.9631 57.5363 44.9631C54.7852 44.9631 52.5547 42.7328 52.5547 39.9816C52.5547 37.2303 54.7852 35 57.5363 35C60.2875 35 62.5178 37.2303 62.5178 39.9816Z" fill="#4193E6"/>
<path d="M62.5178 100.821C62.5178 103.572 60.2875 105.803 57.5363 105.803C54.7852 105.803 52.5547 103.572 52.5547 100.821C52.5547 98.0701 54.7852 95.8398 57.5363 95.8398C60.2875 95.8398 62.5178 98.0701 62.5178 100.821Z" fill="url(#paint4_linear_2887_4847)"/>
<path d="M62.5178 100.821C62.5178 103.572 60.2875 105.803 57.5363 105.803C54.7852 105.803 52.5547 103.572 52.5547 100.821C52.5547 98.0701 54.7852 95.8398 57.5363 95.8398C60.2875 95.8398 62.5178 98.0701 62.5178 100.821Z" fill="#26DCB0"/>
<defs>
<linearGradient id="paint0_linear_2887_4847" x1="380" y1="-6.00003" x2="-6" y2="140" gradientUnits="userSpaceOnUse">
<stop stop-color="#A1D6EB"/>
<stop offset="0.304935" stop-color="#DDF8FF"/>
<stop offset="0.686082" stop-color="#E9FEFF"/>
<stop offset="1" stop-color="#BCEDE9"/>
</linearGradient>
<linearGradient id="paint1_linear_2887_4847" x1="57.3556" y1="37.1445" x2="57.3556" y2="103.684" gradientUnits="userSpaceOnUse">
<stop stop-color="#4489ED"/>
<stop offset="1" stop-color="#24E4AA"/>
</linearGradient>
<linearGradient id="paint2_linear_2887_4847" x1="57.3556" y1="37.1445" x2="57.3556" y2="103.684" gradientUnits="userSpaceOnUse">
<stop stop-color="#4489ED"/>
<stop offset="1" stop-color="#24E4AA"/>
</linearGradient>
<linearGradient id="paint3_linear_2887_4847" x1="57.5363" y1="35" x2="57.5363" y2="44.9631" gradientUnits="userSpaceOnUse">
<stop stop-color="#4489ED"/>
<stop offset="1" stop-color="#24E4AA"/>
</linearGradient>
<linearGradient id="paint4_linear_2887_4847" x1="57.5363" y1="95.8398" x2="57.5363" y2="105.803" gradientUnits="userSpaceOnUse">
<stop stop-color="#4489ED"/>
<stop offset="1" stop-color="#24E4AA"/>
</linearGradient>
</defs>
</svg>
